<svg width="1200" height="630" viewBox="0 0 1200 630" xmlns="http://www.w3.org/2000/svg" font-family="'Apple SD Gothic Neo','Noto Sans KR',sans-serif">
<rect x="0" y="0" width="1200" height="630" fill="#F6F2EA"/>
<rect x="28" y="28" width="1144" height="574" fill="none" stroke="#E2DACA" stroke-width="1"/>
<text x="120" y="116" font-size="21" letter-spacing="4" fill="#A2937D">1인 AI 에이전시 만들기 · EP.0</text>
<text x="118" y="214" font-family="'AppleMyungjo','Nanum Myeongjo',serif" font-size="62" fill="#2B2722">AI로 만드는 건 누구나 한다.</text>
<text x="118" y="296" font-family="'AppleMyungjo','Nanum Myeongjo',serif" font-size="62" fill="#2B2722">진짜 어려운 건, <tspan fill="#B5512E">판단</tspan>이었다.</text>
<rect x="120" y="330" width="190" height="3" fill="#B5512E"/>
<text x="316" y="345" font-size="20" fill="#A2937D">— 실제 클라이언트 셋을 만들고 배운 것</text>
<g>
<rect x="120" y="378" width="300" height="178" rx="10" fill="#FFFFFF" stroke="#E7E0D1" stroke-width="1"/>
<rect x="140" y="398" width="260" height="56" rx="6" fill="#E1F0EA"/>
<rect x="156" y="416" width="150" height="11" rx="5" fill="#1D7A5E"/>
<rect x="156" y="433" width="96" height="8" rx="4" fill="#1D7A5E" opacity="0.45"/>
<rect x="140" y="474" width="240" height="9" rx="4" fill="#ECE6D9"/>
<rect x="140" y="492" width="205" height="9" rx="4" fill="#ECE6D9"/>
<rect x="140" y="510" width="225" height="9" rx="4" fill="#ECE6D9"/>
<rect x="140" y="528" width="98" height="22" rx="6" fill="#1D7A5E"/>
<text x="270" y="592" text-anchor="middle" font-size="22" fill="#3D3A33">심리상담</text>
</g>
<g>
<rect x="450" y="378" width="300" height="178" rx="10" fill="#FFFFFF" stroke="#E7E0D1" stroke-width="1"/>
<rect x="470" y="398" width="260" height="56" rx="6" fill="#F6E6EC"/>
<rect x="486" y="416" width="150" height="11" rx="5" fill="#B25B7A"/>
<rect x="486" y="433" width="96" height="8" rx="4" fill="#B25B7A" opacity="0.45"/>
<rect x="470" y="474" width="240" height="9" rx="4" fill="#ECE6D9"/>
<rect x="470" y="492" width="205" height="9" rx="4" fill="#ECE6D9"/>
<rect x="470" y="510" width="225" height="9" rx="4" fill="#ECE6D9"/>
<rect x="470" y="528" width="98" height="22" rx="6" fill="#B25B7A"/>
<text x="600" y="592" text-anchor="middle" font-size="22" fill="#3D3A33">피부 클리닉</text>
</g>
<g>
<rect x="780" y="378" width="300" height="178" rx="10" fill="#FFFFFF" stroke="#E7E0D1" stroke-width="1"/>
<rect x="800" y="398" width="260" height="56" rx="6" fill="#FAEEDA"/>
<rect x="816" y="416" width="150" height="11" rx="5" fill="#C77A1E"/>
<rect x="816" y="433" width="96" height="8" rx="4" fill="#C77A1E" opacity="0.45"/>
<rect x="800" y="474" width="240" height="9" rx="4" fill="#ECE6D9"/>
<rect x="800" y="492" width="205" height="9" rx="4" fill="#ECE6D9"/>
<rect x="800" y="510" width="225" height="9" rx="4" fill="#ECE6D9"/>
<rect x="800" y="528" width="98" height="22" rx="6" fill="#C77A1E"/>
<text x="930" y="592" text-anchor="middle" font-size="22" fill="#3D3A33">퍼블릭 스피킹</text>
</g>
</svg>
